<svg id="logo" xmlns="http://www.w3.org/2000/svg" width="283.78" height="200.727" viewBox="0 0 283.78 200.727">
  <ellipse id="O" cx="100.363" cy="100.363" rx="100.363" ry="100.363" fill="#e0e3f1"/>
  <g id="Frequency" transform="translate(52.266 54.26)">
    <path id="Path_1" data-name="Path 1" d="M42.276,64.985a3.832,3.832,0,0,1-3.738-3.738V58.755a3.739,3.739,0,0,1,7.477,0v2.493A3.833,3.833,0,0,1,42.276,64.985Z" transform="translate(-38.538 -13.898)" fill="#448aff"/>
    <path id="Path_2" data-name="Path 2" d="M49.727,63.16a5.229,5.229,0,0,1-2.742-1l-.5-.5a.92.92,0,0,1-.249-.749c0-.249-.251-.5-.251-.747v-1.5a.914.914,0,0,1,.251-.749c0-.249.249-.5.249-.747.249-.249.249-.5.5-.5a3.7,3.7,0,0,1,3.489-1,.92.92,0,0,1,.749.249c.249,0,.5.249.747.249a.536.536,0,0,1,.5.5l.5.5c0,.249.249.5.249.747s.249.5.249.749v1.5a.914.914,0,0,1-.249.747c0,.249-.249.5-.249.749l-.5.5A5.228,5.228,0,0,1,49.727,63.16Z" transform="translate(-31.035 -13.318)" fill="#448aff"/>
    <path id="Path_3" data-name="Path 3" d="M57.175,89.312a3.832,3.832,0,0,1-3.738-3.738V50.687a3.738,3.738,0,1,1,7.475,0V85.575A3.832,3.832,0,0,1,57.175,89.312Z" transform="translate(-23.531 -22.027)" fill="#448aff"/>
    <path id="Path_4" data-name="Path 4" d="M72.073,108.026a3.832,3.832,0,0,1-3.738-3.738V44.478a3.738,3.738,0,0,1,7.475,0v59.811A3.832,3.832,0,0,1,72.073,108.026Z" transform="translate(-8.524 -28.279)" fill="#448aff"/>
    <path id="Path_5" data-name="Path 5" d="M64.624,126.74A3.834,3.834,0,0,1,60.886,123V38.27a3.738,3.738,0,0,1,7.475,0V123A3.834,3.834,0,0,1,64.624,126.74Z" transform="translate(-16.028 -34.532)" fill="#448aff"/>
    <path id="Path_6" data-name="Path 6" d="M79.522,85.57a3.833,3.833,0,0,1-3.738-3.74v-29.9a3.739,3.739,0,0,1,7.477,0v29.9A3.833,3.833,0,0,1,79.522,85.57Z" transform="translate(-1.021 -20.776)" fill="#448aff"/>
    <path id="Path_7" data-name="Path 7" d="M86.973,72.47a3.833,3.833,0,0,1-3.74-3.738V56.272a3.739,3.739,0,0,1,7.477,0V68.733A3.832,3.832,0,0,1,86.973,72.47Z" transform="translate(6.482 -16.399)" fill="#448aff"/>
    <path id="Path_8" data-name="Path 8" d="M94.422,76.213a3.833,3.833,0,0,1-3.74-3.738V55.031a3.739,3.739,0,0,1,7.477,0V72.476A3.832,3.832,0,0,1,94.422,76.213Z" transform="translate(13.985 -17.649)" fill="#448aff"/>
    <path id="Path_9" data-name="Path 9" d="M101.87,81.827a3.832,3.832,0,0,1-3.738-3.738V53.17a3.738,3.738,0,1,1,7.475,0V78.09A3.832,3.832,0,0,1,101.87,81.827Z" transform="translate(21.489 -19.526)" fill="#448aff"/>
    <path id="Path_10" data-name="Path 10" d="M109.319,70.6a3.833,3.833,0,0,1-3.738-3.74V56.893a3.738,3.738,0,1,1,7.475,0v9.968A3.833,3.833,0,0,1,109.319,70.6Z" transform="translate(28.992 -15.774)" fill="#448aff"/>
    <path id="Path_11" data-name="Path 11" d="M116.768,68.728a3.832,3.832,0,0,1-3.738-3.738V57.514a3.738,3.738,0,1,1,7.475,0v7.477A3.832,3.832,0,0,1,116.768,68.728Z" transform="translate(36.495 -15.148)" fill="#448aff"/>
    <path id="Path_12" data-name="Path 12" d="M124.217,63.115h-.747a.916.916,0,0,1-.749-.251c-.249,0-.5-.249-.747-.249-.249-.249-.5-.249-.5-.5l-.5-.5c0-.251-.249-.5-.249-.749s-.249-.5-.249-.747v-.749a5.211,5.211,0,0,1,1-2.74l.5-.5a.914.914,0,0,1,.747-.249c.251,0,.5-.249.749-.249h1.5a.914.914,0,0,1,.747.249c.249,0,.5.249.749.249a.536.536,0,0,1,.5.5,3.741,3.741,0,0,1,1,2.74v.749a.914.914,0,0,1-.249.747c0,.249-.251.5-.251.749l-.5.5-.5.5c-.249,0-.5.249-.749.249s-.5.251-.747.251Z" transform="translate(43.999 -13.273)" fill="#448aff"/>
    <path id="Path_13" data-name="Path 13" d="M131.668,64.985a3.833,3.833,0,0,1-3.74-3.738V58.755a3.739,3.739,0,0,1,7.477,0v2.493A3.832,3.832,0,0,1,131.668,64.985Z" transform="translate(51.502 -13.898)" fill="#448aff"/>
    <path id="Path_14" data-name="Path 14" d="M146.565,64.985a3.832,3.832,0,0,1-3.738-3.738V58.755a3.738,3.738,0,1,1,7.475,0v2.493A3.832,3.832,0,0,1,146.565,64.985Z" transform="translate(66.509 -13.898)" fill="#448aff"/>
    <path id="Path_15" data-name="Path 15" d="M139.117,63.115a5.229,5.229,0,0,1-2.742-1l-.5-.5c0-.251-.249-.5-.249-.749s-.251-.5-.251-.747v-.749a5.229,5.229,0,0,1,1-2.74c.249-.251.5-.251.5-.5a.918.918,0,0,1,.749-.249c.249,0,.5-.249.747-.249h1.5a.92.92,0,0,1,.749.249c.249,0,.5.249.747.249a.536.536,0,0,1,.5.5,3.741,3.741,0,0,1,1,2.74v.749a.914.914,0,0,1-.249.747c0,.249-.249.5-.249.749l-.5.5-.5.5c-.249,0-.5.249-.747.249s-.5.251-.749.251Z" transform="translate(59.005 -13.273)" fill="#448aff"/>
    <path id="Path_16" data-name="Path 16" d="M154.014,63.052a5.235,5.235,0,0,1-2.742-1l-.5-.5a.87.87,0,0,0-.249-.5c0-.249-.249-.5-.249-.747v-.749a5.226,5.226,0,0,1,1-2.74,3.612,3.612,0,0,1,5.235,0,3.748,3.748,0,0,1,1,2.74v.749a.914.914,0,0,1-.249.747.878.878,0,0,1-.249.5c-.249.249-.249.5-.5.5A3.815,3.815,0,0,1,154.014,63.052Z" transform="translate(74.012 -13.21)" fill="#448aff"/>
  </g>
</svg>
